<?xml version="1.0" encoding="UTF-8" standalone="no"?>
<svg
   xmlns:dc="http://purl.org/dc/elements/1.1/"
   xmlns:cc="http://creativecommons.org/ns#"
   xmlns:rdf="http://www.w3.org/1999/02/22-rdf-syntax-ns#"
   xmlns:svg="http://www.w3.org/2000/svg"
   xmlns="http://www.w3.org/2000/svg"
   xmlns:sodipodi="http://sodipodi.sourceforge.net/DTD/sodipodi-0.dtd"
   xmlns:inkscape="http://www.inkscape.org/namespaces/inkscape"
   width="1536"
   height="864"
   viewBox="0 0 406.39999 228.60001"
   version="1.1"
   id="svg8"
   inkscape:version="1.0 (4035a4fb49, 2020-05-01)"
   sodipodi:docname="Grid.svg">
  <defs
     id="defs2" />
  <sodipodi:namedview
     id="base"
     pagecolor="#ffffff"
     bordercolor="#666666"
     borderopacity="1.0"
     inkscape:pageopacity="0"
     inkscape:pageshadow="2"
     inkscape:zoom="0.85839035"
     inkscape:cx="676.57105"
     inkscape:cy="401.59356"
     inkscape:document-units="px"
     inkscape:current-layer="layer1"
     inkscape:document-rotation="0"
     showgrid="false"
     units="px"
     fit-margin-top="0"
     fit-margin-left="0"
     fit-margin-right="0"
     fit-margin-bottom="0"
     inkscape:window-width="1920"
     inkscape:window-height="1017"
     inkscape:window-x="-8"
     inkscape:window-y="-8"
     inkscape:window-maximized="1" />
  <metadata
     id="metadata5">
    <rdf:RDF>
      <cc:Work
         rdf:about="">
        <dc:format>image/svg+xml</dc:format>
        <dc:type
           rdf:resource="http://purl.org/dc/dcmitype/StillImage" />
        <dc:title />
      </cc:Work>
    </rdf:RDF>
  </metadata>
  <g
     inkscape:label="Layer 1"
     inkscape:groupmode="layer"
     id="layer1">
    <g
       style="font-size:7.05556px;line-height:1.25;font-family:sans-serif;letter-spacing:0px;word-spacing:0px;stroke-width:0.264583"
       id="text859"
       aria-label=" " />
    <path
       d="M 25.891485,220.07762 152.90002,0.09238731 M 0.13229167,207.56564 H 406.26773 v 12.96459 H 0.13229167 Z m 0,-12.96459 H 406.26773 v 12.96459 H 0.13229167 Z m 0,-12.96458 H 406.26773 v 12.96458 H 0.13229167 Z m 0,-12.96459 H 406.26773 v 12.96459 H 0.13229167 Z m 0,-12.96458 H 406.26773 v 12.96458 H 0.13229167 Z m 0,-12.96459 H 406.26773 V 155.7073 H 0.13229167 Z m 0,-12.96458 H 406.26773 v 12.96458 H 0.13229167 Z m 0,-12.96459 H 406.26773 v 12.96459 H 0.13229167 Z m 0,-12.96458 H 406.26773 v 12.96458 H 0.13229167 Z m 0,-12.964584 H 406.26773 V 103.84896 H 0.13229167 Z m 0,-12.964583 H 406.26773 V 90.884376 H 0.13229167 Z m 0,-12.964584 H 406.26773 V 77.919793 H 0.13229167 Z m 0,-12.964583 H 406.26773 V 64.955209 H 0.13229167 Z m 0,-12.964584 H 406.26773 V 51.990626 H 0.13229167 Z m 0,-12.964583 H 406.26773 V 39.026042 H 0.13229167 Z m 0,-12.964584 H 406.26773 V 26.061459 H 0.13229167 Z m 0,-12.96458349 H 406.26773 V 13.096875 H 0.13229167 Z m 388.93747833,-10e-9 h 12.96458 V 228.46773 h -12.96458 z m -12.96458,0 h 12.96458 V 228.46773 h -12.96458 z m -12.96458,0 h 12.96458 V 228.46773 h -12.96458 z m -12.96458,0 h 12.96458 V 228.46773 h -12.96458 z m -12.96458,0 h 12.96458 V 228.46773 h -12.96458 z m -12.96459,0 h 12.96459 V 228.46773 h -12.96459 z m -12.96458,0 h 12.96458 V 228.46773 h -12.96458 z m -12.96458,0 h 12.96458 V 228.46773 H 298.3177 Z m -12.96458,0 H 298.3177 V 228.46773 h -12.96458 z m -12.96459,0 h 12.96459 V 228.46773 h -12.96459 z m -12.96458,0 h 12.96458 V 228.46773 h -12.96458 z m -12.96458,0 h 12.96458 V 228.46773 h -12.96458 z m -12.96458,0 h 12.96458 V 228.46773 h -12.96458 z m -12.96459,0 h 12.96459 V 228.46773 H 220.5302 Z m -12.96458,0 H 220.5302 V 228.46773 h -12.96458 z m -64.82291,0 h 12.96458 V 228.46773 h -12.96458 z m -12.96458,0 h 12.96458 V 228.46773 h -12.96458 z m -12.96459,0 h 12.96459 V 228.46773 h -12.96459 z m -12.96458,0 h 12.96458 V 228.46773 h -12.96458 z m 90.75208,0 h 12.96458 V 228.46773 h -12.96458 z m -12.96458,0 h 12.96458 V 228.46773 h -12.96458 z m -12.96459,0 h 12.96459 V 228.46773 h -12.96459 z m -12.96458,0 h 12.96458 V 228.46773 h -12.96458 z m -64.822914,0 H 103.84896 V 228.46773 H 90.884376 Z m -12.964583,0 H 90.884376 V 228.46773 H 77.919793 Z m -12.964584,0 H 77.919793 V 228.46773 H 64.955209 Z m -12.964583,0 H 64.955209 V 228.46773 H 51.990626 Z m -12.964584,0 H 51.990626 V 228.46773 H 39.026042 Z m -12.964583,0 H 39.026042 V 228.46773 H 26.061459 Z m -12.964584,0 H 26.061459 V 228.46773 H 13.096875 Z m -12.96458333,0 H 13.096875 V 228.46773 H 0.13229167 Z M 404.34023,1.5801288 25.891485,220.07762 244.89029,1.0788142 M 191.94777,0.87808099 Z M 205.44398,-1.2257 Z"
       style="fill:none;stroke:#000000;stroke-width:0.264583px;stroke-linecap:butt;stroke-linejoin:miter;stroke-opacity:1"
       id="path865" />
  </g>
</svg>
