<?xml version="1.0" encoding="UTF-8" standalone="no"?>
<svg
   xmlns:dc="http://purl.org/dc/elements/1.1/"
   xmlns:cc="http://creativecommons.org/ns#"
   xmlns:rdf="http://www.w3.org/1999/02/22-rdf-syntax-ns#"
   xmlns:svg="http://www.w3.org/2000/svg"
   xmlns="http://www.w3.org/2000/svg"
   xmlns:sodipodi="http://sodipodi.sourceforge.net/DTD/sodipodi-0.dtd"
   xmlns:inkscape="http://www.inkscape.org/namespaces/inkscape"
   sodipodi:docname="Normal.svg"
   inkscape:version="1.0 (4035a4fb49, 2020-05-01)"
   id="svg8"
   version="1.1"
   viewBox="0 0 1280 320"
   height="320"
   width="1280">
  <defs
     id="defs2" />
  <sodipodi:namedview
     inkscape:window-maximized="1"
     inkscape:window-y="-8"
     inkscape:window-x="-8"
     inkscape:window-height="1017"
     inkscape:window-width="1920"
     units="px"
     showgrid="false"
     inkscape:document-rotation="0"
     inkscape:current-layer="layer1"
     inkscape:document-units="px"
     inkscape:cy="155.25713"
     inkscape:cx="645.64202"
     inkscape:zoom="1.3062462"
     inkscape:pageshadow="2"
     inkscape:pageopacity="0.0"
     borderopacity="1.0"
     bordercolor="#666666"
     pagecolor="#ffffff"
     id="base" />
  <metadata
     id="metadata5">
    <rdf:RDF>
      <cc:Work
         rdf:about="">
        <dc:format>image/svg+xml</dc:format>
        <dc:type
           rdf:resource="http://purl.org/dc/dcmitype/StillImage" />
        <dc:title></dc:title>
      </cc:Work>
    </rdf:RDF>
  </metadata>
  <g
     id="layer1"
     inkscape:groupmode="layer"
     inkscape:label="Layer 1">
    <path
       d="M 950.91607,25 H 1230 c 13.85,0 25,11.15 25,25 v 44.951173 m -7.9768,193.388637 C 1242.5663,292.4767 1236.5887,295 1230,295 h -125.4258 m -798.99998,0 H 50 C 36.15,295 25,283.85 25,270 l 1e-6,-12.6621 M 25,58.337899 V 50 C 25,36.15 36.15,25 50,25 v 0 h 101.91602"
       style="fill:none;stroke:#941c2f;stroke-width:10;stroke-miterlimit:4;stroke-dasharray:none;stroke-opacity:1"
       id="outer" />
    <path
       d="m 894.57428,44.999996 h 315.33802 c 13.8986,0 25.0877,11.203572 25.0877,25.120117 v 44.066397 m -7.8884,154.01243 c -4.4846,4.22132 -10.53,6.80104 -17.1993,6.80104 h -147.9219 m -699.0003,0 H 70.087685 C 56.189107,274.99998 45,263.79641 45,249.87986 V 214.14158 M 49.959774,55.08741 C 54.525946,48.956393 61.828407,44.999996 70.087685,44.999996 v 0 H 195.57405"
       style="fill:none;stroke:#01191e;stroke-width:10;stroke-miterlimit:4;stroke-dasharray:none;stroke-opacity:1"
       id="middle" />
    <path
       d="M 847.39632,65 H 1170.5739 C 1184.106,65 1195,76.203573 1195,90.120119 v 46.361341 m -6.955,110.9864 c -4.4285,4.65267 -10.6108,7.53216 -17.4711,7.53216 l -149.9237,1e-5 m -598.99968,-1e-5 H 109.4261 C 95.894041,255.00002 85,243.79644 85,229.8799 V 181.89161 M 93.438175,71.098484 C 97.716652,67.29527 103.30115,65 109.4261,65 v 0 h 138.97062"
       style="fill:none;stroke:#20a4f3;stroke-width:10;stroke-miterlimit:4;stroke-dasharray:none;stroke-opacity:1"
       id="inner" />
  </g>
</svg>
